<?xml version="1.0" encoding="utf-8"?>
<!-- Generator: Adobe Illustrator 25.2.3, SVG Export Plug-In . SVG Version: 6.00 Build 0)  -->
<svg version="1.1" id="Layer_1" xmlns="http://www.w3.org/2000/svg" xmlns:xlink="http://www.w3.org/1999/xlink" x="0px" y="0px"
	 viewBox="0 0 109 50" style="enable-background:new 0 0 109 50;" xml:space="preserve">
<style type="text/css">
	.st0{fill:none;stroke:#7D81CE;stroke-miterlimit:10;}
</style>
<path class="st0" d="M4,16.65c0,0,0.5,14.54,5.67,20.46c1.75,2,3.14,4.27,4.31,6.65c1.28,2.61,4.32,2,6.7-6.34l4.43-30.64
	c0,0,1.11-5.57,3.15,0.68l4.08,19.95c0.63,3.09,3.3,5.49,6.45,5.45c1.57-0.02,3.26-0.63,4.79-2.42c0,0,9.56-13.15,11.1-20.43
	l9.2-0.26c0,0,4.09,19.15,6.77,16.72c0,0,3.19-2.81,5.62-10.34h1.91l5.87,21.83l9.32-0.51c0,0,4.85,7.79,8.43,4.98l4.21-2.3"/>
</svg>
