<?xml version="1.0" encoding="utf-8"?>
<!-- Generator: Adobe Illustrator 25.2.3, SVG Export Plug-In . SVG Version: 6.00 Build 0)  -->
<svg version="1.1" id="Layer_1" xmlns="http://www.w3.org/2000/svg" xmlns:xlink="http://www.w3.org/1999/xlink" x="0px" y="0px"
	 viewBox="0 0 109 50" style="enable-background:new 0 0 109 50;" xml:space="preserve">
<style type="text/css">
	.st0{fill:none;stroke:#7D81CE;stroke-miterlimit:10;}
</style>
<path class="st0" d="M5,68.01c0,0,0.5,14.54,5.67,20.46c1.75,2,3.14,4.27,4.31,6.65c1.28,2.61,4.32,2,6.7-6.34l4.43-30.64
	c0,0,1.11-5.57,3.15,0.68l4.08,19.95c0.63,3.09,3.3,5.49,6.45,5.45c1.57-0.02,3.26-0.63,4.79-2.42c0,0,9.56-13.15,11.1-20.43
	l9.2-0.26c0,0,4.09,19.15,6.77,16.72c0,0,3.19-2.81,5.62-10.34h1.91l5.87,21.83l9.32-0.51c0,0,4.85,7.79,8.43,4.98l4.21-2.3"/>
<path class="st0" d="M3,37.91h6.01c1.27,0,2.45,0.68,3.06,1.8c1.5,2.76,4.65,7.17,7.32,1.84l4.99-19.96
	c0.24-0.97,1.32-1.47,2.22-1.02l3.92,1.96c1.04,0.52,1.84,1.41,2.25,2.5l4.83,12.88l0,0c1.2-1.2,2.13-2.64,2.73-4.23l4.18-11.16
	c0.21-0.57,0.5-1.1,0.86-1.6c1.11-1.51,3.96-6.22,6.81-17.62c0,0,1.82-3.64,9.11,5.46l4.99,23.27c0.3,1.4,1.26,2.57,2.58,3.13
	l8.85,3.79c1.14,0.49,2.02,1.44,2.41,2.62l1.07,3.21c0.08,0.24,0.3,0.4,0.56,0.4h3.11c0.27,0,0.5-0.18,0.57-0.44l6.59-25.95
	c0.12-0.48,0.65-0.72,1.09-0.5l6.15,3.07c0.18,0.09,0.32,0.25,0.39,0.44L105,37.91"/>
</svg>
